<?xml version="1.0" encoding="utf-8"?>
<!-- Generator: Adobe Illustrator 25.1.0, SVG Export Plug-In . SVG Version: 6.00 Build 0)  -->
<svg version="1.1" id="Layer_1" xmlns="http://www.w3.org/2000/svg" xmlns:xlink="http://www.w3.org/1999/xlink" x="0px" y="0px"
	 viewBox="0 0 120 120" style="enable-background:new 0 0 120 120;" xml:space="preserve">
<g>
	<g>
		<g>
			<path d="M10,49.3c0.5-0.5,1.1-1,1.6-1.2c0.9-0.4,1.8-0.6,2.7-0.7c1.6-0.3,3.5-0.3,5.1,0.2c0.6,0.2,1,0.3,1.4,0.8
				c-0.2-0.2,0.1,0.2,0.1,0.3C20.8,48.4,21,48.9,21,49c-0.1-0.3,0,0.3,0,0.3c0,0.4,0.1-0.1,0,0.3c0,0.2-0.1,0.4-0.2,0.6
				c0.1-0.3-0.2,0.3-0.2,0.3c-0.1,0.2-0.4,0.4-0.5,0.5c-0.2,0.1-0.4,0.2-0.5,0.3c-0.2,0.1-0.1,0-0.2,0.1c-0.5,0.2-0.6,0.2-1,0.2
				c-1,0-1.9,0.8-1.9,1.9c0,1,0.9,2,1.9,1.9c2.7-0.1,5.2-1.6,6.2-4.2c0.9-2.5-0.1-5.4-2.5-6.7c-2.2-1.2-5-1.3-7.5-1
				c-2.6,0.3-5.4,1.1-7.2,3.1c-0.7,0.8-0.8,1.9,0,2.7C8,50,9.3,50.1,10,49.3L10,49.3z"/>
		</g>
	</g>
	<g>
		<g>
			<path d="M24.8,39.1c-4-1.8-8.3-2.5-12.7-2c-3.8,0.5-8.9,1.7-11,5.4c-1.9,3.4-0.9,8.1,0.6,11.5c1.4,3.3,4,6.2,7.1,8
				c4.4,2.5,9.5,2.5,14.4,2.3c2.4-0.1,2.5-3.9,0-3.8c-3.6,0.2-7.4,0.3-10.9-1c-2.6-1-4.9-3-6.3-5.4c-1.4-2.4-2.3-5.3-2-8.1
				c0.3-3.3,4.6-4.3,7.3-4.8c3.8-0.7,8-0.2,11.5,1.3c0.9,0.4,2.1,0.3,2.6-0.7C26,40.9,25.8,39.6,24.8,39.1L24.8,39.1z"/>
		</g>
	</g>
	<g>
		<g>
			<path d="M110.4,50.7c-1-1.8-2.8-2.5-4.7-2.7c-1.6-0.2-3.4-0.1-5,0.3c-1.9,0.4-3.5,1.4-4.7,3c-0.6,0.8-1,1.9-1,2.9
				c0,1.3,0.7,2.2,1.6,3.1c0.9,0.9,1.9,1.6,2.8,2.4c0.5,0.4,1.1,0.6,1.7,0.7c1.1,0,1.7-0.7,2.1-1.6c0.4-0.9-0.4-2.1-1.3-2.3
				c-1.1-0.3-1.9,0.3-2.3,1.3c0,0,0,0.1,0,0.1c0.3-0.4,0.6-0.8,0.9-1.1c1.4,0.2,1.8,0.2,1.3-0.1c-0.1-0.1-0.2-0.1-0.3-0.2
				c-0.1-0.1-0.2-0.1-0.4-0.3c-0.3-0.3-0.7-0.5-1-0.8c-0.4-0.3-0.7-0.7-1.1-1c-0.1-0.1-0.3-0.5-0.2-0.2c0,0.2,0,0.2,0,0
				c0-0.1,0-0.1,0,0.1c0-0.2,0-0.2,0,0c0-0.1,0-0.1,0-0.2c0-0.1,0.1-0.2,0.1-0.3c-0.1,0.2-0.1,0.2,0,0c0-0.1,0.4-0.6,0.1-0.3
				c0.1-0.1,0.2-0.3,0.3-0.4c0.1-0.1,0.2-0.2,0.4-0.3c-0.3,0.3,0.2-0.1,0.2-0.1c0.2-0.1,0.3-0.2,0.5-0.3c0.4-0.2-0.3,0.1,0.2-0.1
				c0.3-0.1,0.6-0.2,1-0.3c0.2,0,0.4-0.1,0.6-0.1c0.1,0,0.2,0,0.3,0c-0.2,0-0.2,0,0,0c0.7-0.1,1.5-0.1,2.2-0.1c0.3,0,0.6,0,0.9,0.1
				c-0.5-0.1,0,0,0.1,0c0.2,0,0.4,0.1,0.6,0.2c0.4,0.1-0.2-0.2,0.1,0c0.1,0.1,0.3,0.1,0.4,0.2c-0.4-0.2,0,0,0.1,0.1
				c0.1,0.2,0.1,0.1,0,0c0.1,0.1,0.1,0.2,0.2,0.3c0.5,0.9,1.8,1.2,2.6,0.7C110.7,52.7,111,51.6,110.4,50.7L110.4,50.7z"/>
		</g>
	</g>
	<g>
		<g>
			<path d="M96.4,43.1c3.7-0.8,7.5-0.6,11.1,0.3c2.8,0.7,6.4,1.5,7.7,4.4c1.5,3.2,0.5,7.3-1.1,10.3c-1.7,3-4.3,5.6-7.6,6.8
				c-3.9,1.4-8.5,0.8-12.6,0.4c-1-0.1-1.9,1-1.9,1.9c0,1.1,0.9,1.8,1.9,1.9c4.3,0.5,9.1,1,13.3-0.4c4.1-1.4,7.6-4.3,9.8-8
				c2.3-3.8,3.5-8.7,2.2-13.1c-1.4-4.5-5.3-6.3-9.5-7.5c-4.7-1.4-9.5-1.7-14.3-0.6C93,40,94,43.7,96.4,43.1L96.4,43.1z"/>
		</g>
	</g>
	<g>
		<g>
			<path d="M20.1,63.3c-4.5,4.9-6,12.4-6.1,18.9c0,3.2,0.5,6.1,1.9,9c1.7,3.7,4.6,6.7,7.8,9.1c7.4,5.6,17.2,7.7,26.1,9.1
				c4.9,0.8,9.9,1.2,14.9,0.8c4-0.3,8-1,11.9-1.6c3.7-0.6,7.3-1.3,10.7-2.8c1.7-0.7,3.2-1.6,4.6-2.7c1.5-1.2,2.8-2.8,4-4.3
				c5.1-6.1,10.7-14.3,7.4-22.5c-1.4-3.4-3.7-6.1-6.2-8.7c-1.7-1.8-3.2-3.5-5.3-4.8c-5.9-3.9-12.9-6.4-19.7-8.2
				c-8.6-2.2-17.3-2.3-26.1-1.1c-7.6,1-15.9,2.6-22.4,6.8C22.3,61.3,21.1,62.2,20.1,63.3c-1.7,1.8,1,4.5,2.7,2.7
				c4.4-4.5,11.5-6.3,17.4-7.5c7.8-1.6,16.2-2.4,24.2-1.3c7.1,1,14.2,3.2,20.7,6.4c1.3,0.6,2.5,1.3,3.7,2c0.5,0.3,1,0.6,1.4,0.9
				c0.2,0.1,0.4,0.3,0.6,0.4c0.3,0.2,0.2,0.2,0.4,0.3c1.9,1.5,3.5,3.6,5.1,5.4c2,2.3,3.8,5.1,4.1,8.3c0.2,2.1-0.4,4-1.2,5.8
				c-0.8,1.7-1.6,3.3-2.6,4.9c-1,1.5-2.2,3-3.3,4.4c-1.2,1.4-2.3,3-3.8,4.1c-2.4,2-5.5,3-8.5,3.7c-3.3,0.8-6.7,1.2-10.1,1.7
				c-4.1,0.5-8.1,1-12.3,0.9c-4.6-0.2-9.2-0.9-13.8-1.9c-4.2-0.9-8.4-1.9-12.3-3.6c-6.4-2.7-13.1-7.8-14.4-15
				c-0.5-2.4-0.3-5.3,0-7.8c0.4-3,1.1-6.1,2.5-8.8c0.6-1.2,1.3-2.3,2.2-3.3C24.5,64.2,21.8,61.4,20.1,63.3z"/>
		</g>
	</g>
	<g>
		<g>
			<path d="M31.7,47.9c1.5-0.7,3.2-0.8,4.9-0.9c1.9-0.1,3.7-0.1,5.6-0.1c3.9,0,7.7,0.2,11.6,0.5c2.5,0.2,2.4-3.6,0-3.8
				c-4.2-0.3-8.3-0.5-12.5-0.5c-3.9,0-7.9-0.1-11.5,1.5c-0.9,0.4-1.2,1.8-0.7,2.6C29.7,48.2,30.8,48.4,31.7,47.9L31.7,47.9z"/>
		</g>
	</g>
	<g>
		<g>
			<path d="M63.8,47.7c2-0.5,4-0.4,6.1-0.2c2.1,0.2,4.2,0.4,6.3,0.6c4.2,0.4,8.4,1,12.6,1.6c1,0.2,2-0.3,2.3-1.3
				c0.3-0.9-0.3-2.2-1.3-2.3c-4.5-0.7-9.1-1.3-13.6-1.7c-4.3-0.4-9.1-1.3-13.4-0.2C60.4,44.6,61.4,48.3,63.8,47.7L63.8,47.7z"/>
		</g>
	</g>
	<g>
		<g>
			<path d="M35.4,44.3c0.1-0.3,0.2-0.6,0.3-0.9c0.1-0.1,0.1-0.3,0.2-0.4c-0.1,0.3-0.1,0.3-0.1,0.1c0-0.1,0.1-0.1,0.1-0.2
				c0.3-0.6,0.5-1.1,0.8-1.7c0.3-0.5,0.6-1.1,1-1.6c0.2-0.3,0.4-0.5,0.5-0.8c0-0.1,0.1-0.1,0.1-0.2c-0.2,0.2-0.2,0.3-0.1,0.1
				c0.1-0.1,0.2-0.2,0.3-0.4c0.3-0.4,0.6-0.8,0.6-1.4c0-0.5-0.2-1-0.6-1.4c-0.7-0.6-2-0.8-2.7,0c-1.9,2.2-3.3,4.7-4.2,7.5
				c-0.3,0.9,0.4,2.1,1.3,2.3C34.1,45.9,35.1,45.3,35.4,44.3L35.4,44.3z"/>
		</g>
	</g>
	<g>
		<g>
			<path d="M68.8,45.6c0.2-0.8,0.4-1.7,0.7-2.4c-0.1,0.2-0.1,0.3-0.2,0.5c0.3-0.7,0.7-1.4,1.1-2c0.1-0.2,0.2-0.3,0.3-0.5
				c0.2-0.3-0.3,0.3-0.1,0.1c0.1-0.1,0.1-0.1,0.2-0.2c0.2-0.3,0.5-0.6,0.8-0.8c0.7-0.7,0.8-2,0-2.7c-0.8-0.7-1.9-0.7-2.7,0
				c-1.9,1.9-3.3,4.4-3.8,7.1c-0.1,0.5-0.1,1,0.2,1.5c0.2,0.4,0.7,0.8,1.1,0.9C67.4,47.1,68.6,46.6,68.8,45.6L68.8,45.6z"/>
		</g>
	</g>
	<g>
		<g>
			<path d="M25.5,40.2C29,28.3,38.7,19.7,50.1,15.4c-0.8-0.8-1.6-1.6-2.3-2.3c-0.6,3-0.7,6-0.4,9c0.2,1.9,2.4,2.6,3.6,1
				c1.7-2.4,3.8-4.6,6.3-6.3c1.2-0.8,2.4-1.5,3.7-2c1.1-0.5,2.8-1.2,4-1.1c-0.3-0.1-0.6-0.2-1-0.3c-0.4-0.4-0.4-0.4-0.2,0.2
				c0,0.2,0.1,0.3,0.1,0.5c0.1,0.6,0.2,1.1,0.3,1.7c0.2,1,0.4,2.1,0.6,3.1c0.2,1,1.4,1.7,2.3,1.3c4.1-1.5,8.4-2.4,12.8-2.3
				c-0.6-0.6-1.3-1.3-1.9-1.9c0.2,2,0.5,4,0.7,6.1c0.1,1.1,1.1,2.4,2.4,1.8c2.9-1.2,5.9-2.1,9-2.6c-0.8-0.6-1.6-1.2-2.4-1.8
				c0.1,2.1-0.1,4.5,0.3,6.5c0.4,2,2.1,2.9,3.6,4.1c2.5,2,5.2,4.6,5.5,8c0.2,2.4,4,2.5,3.8,0c-0.3-3.7-2.2-6.8-4.9-9.3
				c-0.6-0.6-1.3-1.1-1.9-1.7c-0.6-0.5-1.5-0.9-2-1.6c-0.5-0.6-0.3-1.7-0.4-2.5c0-1.2-0.1-2.4-0.1-3.7c0-1.3-1.2-2-2.4-1.8
				c-3.1,0.5-6.1,1.4-9,2.6c0.8,0.6,1.6,1.2,2.4,1.8c-0.2-2-0.5-4-0.7-6.1c-0.1-1-0.8-1.9-1.9-1.9c-4.7,0-9.4,0.8-13.8,2.5
				c0.8,0.4,1.6,0.9,2.3,1.3c-0.3-1.4-0.6-2.9-0.8-4.3c-0.3-1.4-0.4-3-1.9-3.6c-1.1-0.4-2.5,0-3.6,0.3c-1.2,0.3-2.3,0.8-3.5,1.3
				c-4.5,2-8.2,5.5-11,9.5c1.2,0.3,2.4,0.6,3.6,1c-0.3-2.7-0.3-5.3,0.2-7.9c0.2-1.3-0.9-2.9-2.3-2.3c-12.7,4.8-23.4,14.2-27.3,27.5
				C21.1,41.6,24.8,42.6,25.5,40.2L25.5,40.2z"/>
		</g>
	</g>
	<g>
		<g>
			<path d="M49.7,74.1c-1.5-3.3-3.8-6.2-7.2-7.6c-2.6-1-5.5-1-8.1-0.3c-2.5,0.7-4.9,1.8-6.8,3.5c-3.1,2.8-2.8,7.9-1.1,11.4
				c2.1,4.5,7.1,6.9,11.9,6c1-0.2,1.6-1.4,1.3-2.3c-0.3-1.1-1.3-1.5-2.3-1.3c-3,0.5-5.9-1.1-7.3-3.7c-0.8-1.4-1.1-3.1-1-4.7
				c0.1-1.5,0.5-2.1,1.6-3c0.7-0.6,1.4-1,2.3-1.4c0.1,0,0.2-0.1,0.3-0.1c0,0-0.3,0.1,0,0c0.2-0.1,0.5-0.2,0.7-0.3
				c0.5-0.2,1-0.3,1.4-0.5c1.9-0.5,3.6-0.6,5.5,0c2.6,0.9,4.5,3.5,5.7,6.1c0.4,0.9,1.8,1.2,2.6,0.7C50,76.2,50.1,75.1,49.7,74.1
				L49.7,74.1z"/>
		</g>
	</g>
	<g>
		<g>
			<path d="M48,77c2.2,0.1,4.4,0.3,6.6,0.4c1,0.1,2-0.9,1.9-1.9c0-1.1-0.8-1.8-1.9-1.9c-2.2-0.1-4.4-0.3-6.6-0.4
				c-1-0.1-2,0.9-1.9,1.9C46.2,76.2,47,76.9,48,77L48,77z"/>
		</g>
	</g>
	<g>
		<g>
			<path d="M40,86.8c1.5-0.1,3-0.1,4.4,0c0.7,0,1.4,0.1,2.1,0.1c0.4,0,0.7,0.1,1.1,0.1c0.1,0,0.2,0,0.4,0c0.2,0,0.2,0,0.1,0
				c-0.1,0-0.1,0,0.1,0c0.1,0,0.2,0,0.4,0.1c0.5,0.1,1,0.1,1.5-0.2c0.4-0.2,0.8-0.7,0.9-1.1c0.2-0.9-0.3-2.2-1.3-2.3
				C46.4,83,43.2,82.8,40,83c-1,0.1-2,0.8-1.9,1.9C38.2,85.8,39,86.8,40,86.8L40,86.8z"/>
		</g>
	</g>
	<g>
		<g>
			<path d="M40.3,72.8c-1.2-0.8-2.9-0.9-4.2-0.4c-0.7,0.3-1.4,0.7-1.9,1.3c-0.6,0.8-1,1.6-1.1,2.6c-0.1,1.1,0.4,2.2,1.3,2.8
				c0.7,0.4,1.5,0.6,2.3,0.8c1.7,0.3,3.8,0.4,5-1c0.5-0.5,0.8-1.2,0.8-1.9c0-0.6-0.2-1.2-0.4-1.6c-0.7-1.2-2.3-1.8-3.5-1
				c-0.4,0.3-0.7,0.7-0.9,1.1c-0.1,0.5-0.1,1.1,0.2,1.5c0.5,0.8,1.7,1.3,2.6,0.7c0,0,0.1,0,0.1-0.1c-0.2,0.1-0.3,0.1-0.5,0.2
				c0,0,0.1,0,0.1,0c-0.2,0-0.3,0-0.5,0.1c0.1,0,0.1,0,0.2,0c-0.2,0-0.3,0-0.5-0.1c0.1,0,0.1,0,0.2,0c-0.2-0.1-0.3-0.1-0.5-0.2
				c0.1,0,0.1,0.1,0.1,0.1c-0.1-0.1-0.3-0.2-0.4-0.3c0.1,0.1,0.1,0.1,0.2,0.2c-0.1-0.1-0.2-0.3-0.3-0.4c0.1,0.1,0.1,0.2,0.2,0.3
				c-0.1-0.2-0.1-0.3-0.2-0.5c0,0.1,0.1,0.2,0.1,0.2c0-0.2,0-0.3-0.1-0.5c0,0.1,0,0.2,0,0.2c0-0.2,0-0.3,0.1-0.5c0,0.1,0,0.1,0,0.2
				c0.1-0.2,0.1-0.3,0.2-0.5c0,0.1-0.1,0.2-0.2,0.3c0.1-0.1,0.2-0.3,0.3-0.4c-0.1,0.1-0.2,0.2-0.2,0.2c0.1-0.1,0.3-0.2,0.4-0.3
				c-0.1,0.1-0.2,0.2-0.4,0.2c0.2-0.1,0.3-0.1,0.5-0.2c-0.2,0.1-0.4,0.1-0.6,0.2c0.2,0,0.3,0,0.5-0.1c-0.4,0.1-0.8,0-1.3,0
				c0.2,0,0.3,0,0.5,0.1c-0.7-0.1-1.5-0.2-2.2-0.5c0.2,0.1,0.3,0.1,0.5,0.2c-0.1,0-0.2-0.1-0.3-0.2c0.1,0.1,0.3,0.2,0.4,0.3
				c-0.1-0.1-0.1-0.1-0.2-0.2c0.1,0.1,0.2,0.3,0.3,0.4c-0.1-0.1-0.1-0.2-0.1-0.2c0.1,0.2,0.1,0.3,0.2,0.5c0-0.1-0.1-0.2-0.1-0.3
				c0,0.2,0,0.3,0.1,0.5c0-0.2,0-0.3,0-0.5c0,0.2,0,0.3-0.1,0.5c0-0.2,0.1-0.4,0.2-0.6c-0.1,0.2-0.1,0.3-0.2,0.5
				c0.1-0.2,0.2-0.3,0.3-0.5c-0.1,0.1-0.2,0.3-0.3,0.4c0.2-0.2,0.3-0.4,0.5-0.5c-0.1,0.1-0.3,0.2-0.4,0.3c0.2-0.1,0.4-0.3,0.6-0.4
				c-0.2,0.1-0.3,0.1-0.5,0.2c0.3-0.1,0.5-0.2,0.8-0.2c-0.2,0-0.3,0-0.5,0.1c0.3,0,0.5,0,0.8,0c-0.2,0-0.3,0-0.5-0.1
				c0.2,0,0.4,0.1,0.6,0.2c-0.2-0.1-0.3-0.1-0.5-0.2c0.2,0.1,0.3,0.2,0.5,0.3c0.4,0.3,1,0.3,1.5,0.2c0.4-0.1,0.9-0.5,1.1-0.9
				C41.5,74.5,41.2,73.4,40.3,72.8L40.3,72.8z"/>
		</g>
	</g>
	<g>
		<g>
			<path d="M33,47.6c0.2,0.5,0.5,1,0.9,1.5c0.4,0.6,0.9,1.2,1.4,1.7c0.3,0.3,0.9,0.6,1.4,0.6c0.5,0,1-0.2,1.4-0.6
				c0.3-0.4,0.6-0.8,0.6-1.4c0-0.5-0.2-1-0.6-1.4c-0.3-0.3-0.5-0.5-0.7-0.8c0.1,0.1,0.2,0.3,0.3,0.4c-0.5-0.6-0.9-1.3-1.2-2
				c-0.1-0.2-0.3-0.4-0.5-0.5c-0.2-0.2-0.4-0.3-0.6-0.3c-0.3-0.1-0.5-0.1-0.8,0c-0.3,0-0.5,0.1-0.7,0.2c-0.4,0.3-0.8,0.7-0.9,1.1
				c0,0.2,0,0.3-0.1,0.5C32.7,46.9,32.8,47.3,33,47.6L33,47.6z"/>
		</g>
	</g>
	<g>
		<g>
			<path d="M66.5,46.5c1.1,1.5,2.2,2.9,3.6,4.1c0.4,0.3,0.8,0.6,1.4,0.6c0.5,0,1-0.2,1.4-0.6c0.3-0.4,0.6-0.8,0.6-1.4
				c0-0.5-0.2-1-0.6-1.4c-1-0.9-1.9-1.9-2.8-2.9c0.1,0.1,0.2,0.3,0.3,0.4c-0.2-0.2-0.4-0.5-0.5-0.7c-0.3-0.4-0.6-0.7-1.1-0.9
				c-0.5-0.1-1.1-0.1-1.5,0.2c-0.4,0.3-0.8,0.7-0.9,1.1C66.2,45.5,66.2,46.1,66.5,46.5L66.5,46.5z"/>
		</g>
	</g>
	<g>
		<g>
			<path d="M76.3,32.5c2.5,1.3,4.9,2.7,7.4,4c0.9,0.5,2.1,0.2,2.6-0.7c0.5-0.9,0.3-2.1-0.7-2.6c-2.5-1.3-4.9-2.7-7.4-4
				c-0.9-0.5-2.1-0.2-2.6,0.7C75.1,30.8,75.4,32,76.3,32.5L76.3,32.5z"/>
		</g>
	</g>
	<g>
		<g>
			<path d="M42.1,30.2c1.1-0.1,2.1-0.1,3.2,0c-0.2,0-0.3,0-0.5-0.1c0.6,0.1,1.2,0.2,1.7,0.4c1,0.3,2.1-0.3,2.3-1.3
				c0.2-1-0.3-2.1-1.3-2.3c-1.8-0.5-3.6-0.7-5.4-0.5c-0.5,0.1-1,0.2-1.4,0.6c-0.3,0.3-0.6,0.9-0.6,1.4c0,0.5,0.2,1,0.6,1.4
				C41.1,30,41.6,30.3,42.1,30.2L42.1,30.2z"/>
		</g>
	</g>
</g>
</svg>
